<svg width="258" height="67" viewBox="0 0 258 67" fill="none" xmlns="http://www.w3.org/2000/svg">
<path d="M0 0H258V67H0V0Z" fill="black"/>
<path d="M40.64 47.28C38.5867 47.28 36.7467 46.9467 35.12 46.28C33.4933 45.6133 32.1867 44.6267 31.2 43.32C30.24 42.0133 29.7333 40.44 29.68 38.6H36.96C37.0667 39.64 37.4267 40.44 38.04 41C38.6533 41.5333 39.4533 41.8 40.44 41.8C41.4533 41.8 42.2533 41.5733 42.84 41.12C43.4267 40.64 43.72 39.9867 43.72 39.16C43.72 38.4667 43.48 37.8933 43 37.44C42.5467 36.9867 41.9733 36.6133 41.28 36.32C40.6133 36.0267 39.6533 35.6933 38.4 35.32C36.5867 34.76 35.1067 34.2 33.96 33.64C32.8133 33.08 31.8267 32.2533 31 31.16C30.1733 30.0667 29.76 28.64 29.76 26.88C29.76 24.2667 30.7067 22.2267 32.6 20.76C34.4933 19.2667 36.96 18.52 40 18.52C43.0933 18.52 45.5867 19.2667 47.48 20.76C49.3733 22.2267 50.3867 24.28 50.52 26.92H43.12C43.0667 26.0133 42.7333 25.3067 42.12 24.8C41.5067 24.2667 40.72 24 39.76 24C38.9333 24 38.2667 24.2267 37.76 24.68C37.2533 25.1067 37 25.7333 37 26.56C37 27.4667 37.4267 28.1733 38.28 28.68C39.1333 29.1867 40.4667 29.7333 42.28 30.32C44.0933 30.9333 45.56 31.52 46.68 32.08C47.8267 32.64 48.8133 33.4533 49.64 34.52C50.4667 35.5867 50.88 36.96 50.88 38.64C50.88 40.24 50.4667 41.6933 49.64 43C48.84 44.3067 47.6667 45.3467 46.12 46.12C44.5733 46.8933 42.7467 47.28 40.64 47.28ZM76.4894 27.96C76.4894 29.5867 76.116 31.08 75.3694 32.44C74.6227 33.7733 73.476 34.8533 71.9294 35.68C70.3827 36.5067 68.4627 36.92 66.1694 36.92H61.9294V47H55.0894V18.92H66.1694C68.4094 18.92 70.3027 19.3067 71.8494 20.08C73.396 20.8533 74.556 21.92 75.3294 23.28C76.1027 24.64 76.4894 26.2 76.4894 27.96ZM65.6494 31.48C66.956 31.48 67.9294 31.1733 68.5694 30.56C69.2094 29.9467 69.5294 29.08 69.5294 27.96C69.5294 26.84 69.2094 25.9733 68.5694 25.36C67.9294 24.7467 66.956 24.44 65.6494 24.44H61.9294V31.48H65.6494ZM93.3303 47.28C90.6903 47.28 88.2636 46.6667 86.0503 45.44C83.8636 44.2133 82.117 42.5067 80.8103 40.32C79.5303 38.1067 78.8903 35.6267 78.8903 32.88C78.8903 30.1333 79.5303 27.6667 80.8103 25.48C82.117 23.2933 83.8636 21.5867 86.0503 20.36C88.2636 19.1333 90.6903 18.52 93.3303 18.52C95.9703 18.52 98.3836 19.1333 100.57 20.36C102.784 21.5867 104.517 23.2933 105.77 25.48C107.05 27.6667 107.69 30.1333 107.69 32.88C107.69 35.6267 107.05 38.1067 105.77 40.32C104.49 42.5067 102.757 44.2133 100.57 45.44C98.3836 46.6667 95.9703 47.28 93.3303 47.28ZM93.3303 41.04C95.5703 41.04 97.357 40.2933 98.6903 38.8C100.05 37.3067 100.73 35.3333 100.73 32.88C100.73 30.4 100.05 28.4267 98.6903 26.96C97.357 25.4667 95.5703 24.72 93.3303 24.72C91.0636 24.72 89.2503 25.4533 87.8903 26.92C86.557 28.3867 85.8903 30.3733 85.8903 32.88C85.8903 35.36 86.557 37.3467 87.8903 38.84C89.2503 40.3067 91.0636 41.04 93.3303 41.04ZM125.816 47L119.976 36.4H118.336V47H111.496V18.92H122.976C125.189 18.92 127.069 19.3067 128.616 20.08C130.189 20.8533 131.362 21.92 132.136 23.28C132.909 24.6133 133.296 26.1067 133.296 27.76C133.296 29.6267 132.762 31.2933 131.696 32.76C130.656 34.2267 129.109 35.2667 127.056 35.88L133.536 47H125.816ZM118.336 31.56H122.576C123.829 31.56 124.762 31.2533 125.376 30.64C126.016 30.0267 126.336 29.16 126.336 28.04C126.336 26.9733 126.016 26.1333 125.376 25.52C124.762 24.9067 123.829 24.6 122.576 24.6H118.336V31.56ZM157.789 18.92V24.4H150.349V47H143.509V24.4H136.069V18.92H157.789Z" fill="white"/>
<path d="M188.339 27.8C187.832 26.8667 187.099 26.16 186.139 25.68C185.205 25.1733 184.099 24.92 182.819 24.92C180.605 24.92 178.832 25.6533 177.499 27.12C176.165 28.56 175.499 30.4933 175.499 32.92C175.499 35.5067 176.192 37.5333 177.579 39C178.992 40.44 180.925 41.16 183.379 41.16C185.059 41.16 186.472 40.7333 187.619 39.88C188.792 39.0267 189.645 37.8 190.179 36.2H181.499V31.16H196.379V37.52C195.872 39.2267 195.005 40.8133 193.779 42.28C192.579 43.7467 191.045 44.9333 189.179 45.84C187.312 46.7467 185.205 47.2 182.859 47.2C180.085 47.2 177.605 46.6 175.419 45.4C173.259 44.1733 171.565 42.48 170.339 40.32C169.139 38.16 168.539 35.6933 168.539 32.92C168.539 30.1467 169.139 27.68 170.339 25.52C171.565 23.3333 173.259 21.64 175.419 20.44C177.579 19.2133 180.045 18.6 182.819 18.6C186.179 18.6 189.005 19.4133 191.299 21.04C193.619 22.6667 195.152 24.92 195.899 27.8H188.339ZM213.448 47.28C210.808 47.28 208.381 46.6667 206.168 45.44C203.981 44.2133 202.234 42.5067 200.928 40.32C199.647 38.1067 199.007 35.6267 199.007 32.88C199.007 30.1333 199.647 27.6667 200.928 25.48C202.234 23.2933 203.981 21.5867 206.168 20.36C208.381 19.1333 210.808 18.52 213.448 18.52C216.088 18.52 218.501 19.1333 220.688 20.36C222.901 21.5867 224.634 23.2933 225.888 25.48C227.168 27.6667 227.808 30.1333 227.808 32.88C227.808 35.6267 227.168 38.1067 225.888 40.32C224.608 42.5067 222.874 44.2133 220.688 45.44C218.501 46.6667 216.088 47.28 213.448 47.28ZM213.448 41.04C215.688 41.04 217.474 40.2933 218.807 38.8C220.168 37.3067 220.848 35.3333 220.848 32.88C220.848 30.4 220.168 28.4267 218.807 26.96C217.474 25.4667 215.688 24.72 213.448 24.72C211.181 24.72 209.368 25.4533 208.008 26.92C206.674 28.3867 206.008 30.3733 206.008 32.88C206.008 35.36 206.674 37.3467 208.008 38.84C209.368 40.3067 211.181 41.04 213.448 41.04Z" fill="#988CFF"/>
</svg>
